<svg width="424" height="264" viewBox="0 0 424 264" fill="none" xmlns="http://www.w3.org/2000/svg">
<g clip-path="url(#clip0_2923_82259)" filter="url(#filter0_d_2923_82259)">
<rect x="20" y="24" width="384" height="200" fill="url(#paint0_radial_2923_82259)"/>
<circle opacity="0.05" cx="342" cy="195" r="118" fill="white"/>
<circle opacity="0.05" cx="83" cy="33" r="45" fill="white"/>
<path opacity="0.4" d="M44.799 174V166.727H49.3587V167.672H45.8963V169.888H49.1207V170.829H45.8963V173.055H49.4013V174H44.799ZM51.5879 166.727L53.3279 169.572H53.3848L55.1248 166.727H56.3961L54.1305 170.364L56.4103 174H55.1319L53.3848 171.195H53.3279L51.5808 174H50.3024L52.6213 170.364L50.3166 166.727H51.5879ZM57.4846 174V166.727H60.0769C60.6427 166.727 61.1114 166.83 61.4831 167.036C61.8548 167.242 62.133 167.524 62.3176 167.881C62.5023 168.237 62.5946 168.637 62.5946 169.082C62.5946 169.529 62.5011 169.932 62.3141 170.289C62.1294 170.644 61.8501 170.926 61.476 171.134C61.1043 171.34 60.6368 171.443 60.0733 171.443H58.2907V170.513H59.9739C60.3314 170.513 60.6214 170.451 60.8439 170.328C61.0665 170.203 61.2298 170.032 61.334 169.817C61.4382 169.601 61.4902 169.356 61.4902 169.082C61.4902 168.807 61.4382 168.563 61.334 168.35C61.2298 168.137 61.0653 167.97 60.8404 167.849C60.6178 167.729 60.3243 167.668 59.9597 167.668H58.5819V174H57.4846ZM64.9783 166.727V174H63.881V166.727H64.9783ZM66.5763 174V166.727H69.1687C69.7321 166.727 70.1997 166.824 70.5714 167.018C70.9454 167.213 71.2248 167.481 71.4094 167.825C71.5941 168.165 71.6864 168.56 71.6864 169.007C71.6864 169.452 71.5929 169.844 71.4059 170.183C71.2212 170.519 70.9419 170.78 70.5678 170.967C70.1961 171.154 69.7286 171.248 69.1651 171.248H67.2013V170.303H69.0657C69.4208 170.303 69.7096 170.252 69.9322 170.151C70.1571 170.049 70.3216 169.901 70.4258 169.707C70.5299 169.513 70.582 169.279 70.582 169.007C70.582 168.732 70.5288 168.495 70.4222 168.293C70.3181 168.092 70.1535 167.938 69.9286 167.832C69.7061 167.723 69.4137 167.668 69.0515 167.668H67.6737V174H66.5763ZM70.1665 170.719L71.9634 174H70.7134L68.9521 170.719H70.1665ZM73.0217 174V166.727H77.5813V167.672H74.119V169.888H77.3434V170.829H74.119V173.055H77.6239V174H73.0217ZM83.0137 168.638C82.9758 168.302 82.8195 168.041 82.5449 167.857C82.2703 167.67 81.9247 167.576 81.508 167.576C81.2097 167.576 80.9516 167.623 80.7338 167.718C80.516 167.81 80.3468 167.938 80.226 168.102C80.1077 168.263 80.0485 168.446 80.0485 168.652C80.0485 168.825 80.0887 168.974 80.1692 169.099C80.2521 169.225 80.3598 169.33 80.4924 169.415C80.6273 169.498 80.7717 169.568 80.9256 169.625C81.0795 169.679 81.2275 169.724 81.3695 169.76L82.0797 169.945C82.3117 170.001 82.5497 170.078 82.7935 170.175C83.0373 170.272 83.2634 170.4 83.4718 170.559C83.6801 170.718 83.8482 170.914 83.976 171.148C84.1062 171.383 84.1713 171.663 84.1713 171.99C84.1713 172.402 84.0648 172.768 83.8517 173.087C83.641 173.407 83.3345 173.659 82.932 173.844C82.5319 174.028 82.0478 174.121 81.4796 174.121C80.9351 174.121 80.464 174.034 80.0662 173.862C79.6685 173.689 79.3572 173.444 79.1323 173.126C78.9074 172.807 78.7831 172.428 78.7594 171.99H79.8603C79.8816 172.253 79.9668 172.472 80.1159 172.647C80.2675 172.82 80.4604 172.949 80.6948 173.034C80.9315 173.117 81.1908 173.158 81.4725 173.158C81.7826 173.158 82.0584 173.11 82.2999 173.013C82.5437 172.913 82.7355 172.776 82.8752 172.601C83.0149 172.423 83.0847 172.216 83.0847 171.979C83.0847 171.764 83.0231 171.588 82.9 171.45C82.7793 171.313 82.6148 171.199 82.4064 171.109C82.2005 171.019 81.9673 170.94 81.7069 170.871L80.8475 170.637C80.2651 170.478 79.8034 170.245 79.4625 169.938C79.124 169.63 78.9547 169.223 78.9547 168.716C78.9547 168.297 79.0684 167.931 79.2956 167.619C79.5229 167.306 79.8307 167.063 80.2189 166.891C80.6072 166.715 81.0452 166.628 81.5328 166.628C82.0253 166.628 82.4597 166.714 82.8361 166.887C83.2149 167.06 83.5132 167.298 83.731 167.601C83.9488 167.902 84.0624 168.247 84.0719 168.638H83.0137Z" fill="white"/>
<path d="M48.5241 195.169C47.7386 195.166 47.0675 194.959 46.5107 194.548C45.9538 194.137 45.5279 193.538 45.233 192.753C44.938 191.967 44.7905 191.021 44.7905 189.914C44.7905 188.81 44.938 187.867 45.233 187.085C45.5313 186.303 45.9588 185.706 46.5156 185.295C47.0758 184.884 47.7453 184.679 48.5241 184.679C49.303 184.679 49.9709 184.886 50.5277 185.3C51.0845 185.711 51.5104 186.308 51.8054 187.09C52.1037 187.869 52.2528 188.81 52.2528 189.914C52.2528 191.024 52.1054 191.972 51.8104 192.758C51.5154 193.54 51.0895 194.138 50.5327 194.553C49.9759 194.964 49.3063 195.169 48.5241 195.169ZM48.5241 193.842C49.2135 193.842 49.7521 193.505 50.1399 192.832C50.531 192.16 50.7266 191.187 50.7266 189.914C50.7266 189.069 50.6371 188.355 50.4581 187.771C50.2824 187.185 50.0289 186.741 49.6974 186.439C49.3693 186.134 48.9782 185.982 48.5241 185.982C47.8381 185.982 47.2995 186.32 46.9084 186.996C46.5173 187.672 46.3201 188.645 46.3168 189.914C46.3168 190.763 46.4046 191.48 46.5803 192.067C46.7592 192.65 47.0128 193.093 47.3409 193.394C47.669 193.692 48.0634 193.842 48.5241 193.842ZM53.6627 193.011V191.768L58.0626 184.818H59.042V186.648H58.4205L55.2735 191.629V191.709H61.3041V193.011H53.6627ZM58.4901 195V192.634L58.5001 192.067V184.818H59.9568V195H58.4901ZM66.7944 184.341L63.5131 196.531H62.1857L65.467 184.341H66.7944ZM67.8973 195V193.886L71.3426 190.317C71.7105 189.929 72.0138 189.589 72.2524 189.298C72.4944 189.003 72.675 188.723 72.7943 188.457C72.9136 188.192 72.9733 187.911 72.9733 187.612C72.9733 187.274 72.8937 186.982 72.7347 186.737C72.5756 186.489 72.3585 186.298 72.0834 186.165C71.8083 186.03 71.4984 185.962 71.1537 185.962C70.7891 185.962 70.4709 186.036 70.1991 186.185C69.9274 186.335 69.7186 186.545 69.5727 186.817C69.4269 187.089 69.354 187.407 69.354 187.771H67.8874C67.8874 187.152 68.0299 186.61 68.3149 186.146C68.5999 185.682 68.991 185.322 69.4882 185.067C69.9854 184.808 70.5505 184.679 71.1835 184.679C71.8232 184.679 72.3866 184.807 72.8739 185.062C73.3644 185.314 73.7472 185.658 74.0223 186.096C74.2974 186.53 74.4349 187.021 74.4349 187.567C74.4349 187.945 74.3637 188.315 74.2212 188.676C74.082 189.037 73.8383 189.44 73.4903 189.884C73.1423 190.325 72.6584 190.86 72.0386 191.49L70.0152 193.608V193.683H74.599V195H67.8973ZM75.9107 193.011V191.768L80.3106 184.818H81.29V186.648H80.6685L77.5215 191.629V191.709H83.552V193.011H75.9107ZM80.7381 195V192.634L80.7481 192.067V184.818H82.2047V195H80.7381Z" fill="white"/>
<path opacity="0.4" d="M230.839 169.092H229.732C229.689 168.856 229.61 168.647 229.494 168.467C229.378 168.287 229.236 168.135 229.067 168.009C228.899 167.884 228.711 167.789 228.503 167.725C228.297 167.661 228.078 167.629 227.846 167.629C227.427 167.629 227.052 167.735 226.72 167.945C226.391 168.156 226.131 168.465 225.939 168.872C225.75 169.279 225.655 169.777 225.655 170.364C225.655 170.955 225.75 171.455 225.939 171.862C226.131 172.269 226.392 172.577 226.724 172.786C227.055 172.994 227.428 173.098 227.842 173.098C228.072 173.098 228.29 173.067 228.496 173.006C228.704 172.942 228.892 172.848 229.06 172.725C229.228 172.602 229.371 172.452 229.487 172.274C229.605 172.094 229.687 171.888 229.732 171.656L230.839 171.66C230.78 172.017 230.665 172.346 230.495 172.647C230.327 172.945 230.11 173.203 229.845 173.421C229.582 173.637 229.282 173.804 228.943 173.922C228.605 174.04 228.235 174.099 227.835 174.099C227.205 174.099 226.644 173.95 226.152 173.652C225.66 173.351 225.271 172.922 224.987 172.363C224.705 171.804 224.565 171.138 224.565 170.364C224.565 169.587 224.707 168.921 224.991 168.364C225.275 167.806 225.663 167.377 226.156 167.079C226.648 166.778 227.208 166.628 227.835 166.628C228.221 166.628 228.581 166.683 228.915 166.795C229.251 166.904 229.553 167.065 229.82 167.278C230.088 167.488 230.309 167.746 230.484 168.052C230.66 168.355 230.778 168.702 230.839 169.092ZM232.718 174H231.553L234.17 166.727H235.438L238.055 174H236.891L234.835 168.048H234.778L232.718 174ZM232.913 171.152H236.692V172.075H232.913V171.152ZM239.106 174V166.727H241.698C242.261 166.727 242.729 166.824 243.101 167.018C243.475 167.213 243.754 167.481 243.939 167.825C244.123 168.165 244.216 168.56 244.216 169.007C244.216 169.452 244.122 169.844 243.935 170.183C243.751 170.519 243.471 170.78 243.097 170.967C242.725 171.154 242.258 171.248 241.694 171.248H239.731V170.303H241.595C241.95 170.303 242.239 170.252 242.461 170.151C242.686 170.049 242.851 169.901 242.955 169.707C243.059 169.513 243.111 169.279 243.111 169.007C243.111 168.732 243.058 168.495 242.952 168.293C242.847 168.092 242.683 167.938 242.458 167.832C242.235 167.723 241.943 167.668 241.581 167.668H240.203V174H239.106ZM242.696 170.719L244.493 174H243.243L241.481 170.719H242.696ZM247.905 174H245.551V166.727H247.98C248.693 166.727 249.305 166.873 249.816 167.164C250.327 167.453 250.719 167.868 250.991 168.411C251.266 168.95 251.403 169.598 251.403 170.353C251.403 171.111 251.265 171.762 250.988 172.306C250.713 172.851 250.315 173.27 249.795 173.563C249.274 173.854 248.644 174 247.905 174ZM246.648 173.041H247.845C248.399 173.041 248.859 172.937 249.226 172.729C249.593 172.518 249.868 172.214 250.05 171.816C250.233 171.416 250.324 170.928 250.324 170.353C250.324 169.782 250.233 169.298 250.05 168.901C249.87 168.503 249.602 168.201 249.244 167.995C248.887 167.789 248.443 167.686 247.912 167.686H246.648V173.041ZM261.284 166.727V174H260.276L256.579 168.666H256.512V174H255.414V166.727H256.43L260.13 172.068H260.198V166.727H261.284ZM263.499 174H262.335L264.952 166.727H266.219L268.837 174H267.672L265.616 168.048H265.559L263.499 174ZM263.695 171.152H267.473V172.075H263.695V171.152ZM269.887 166.727H271.219L273.534 172.381H273.619L275.934 166.727H277.266V174H276.222V168.737H276.155L274.01 173.989H273.143L270.998 168.734H270.931V174H269.887V166.727ZM278.862 174V166.727H283.421V167.672H279.959V169.888H283.183V170.829H279.959V173.055H283.464V174H278.862Z" fill="white"/>
<path d="M226.009 184.818L228.842 193.111H228.957L231.79 184.818H233.451L229.787 195H228.012L224.348 184.818H226.009ZM236.132 195.169C235.648 195.169 235.211 195.08 234.82 194.901C234.429 194.718 234.119 194.455 233.89 194.11C233.665 193.765 233.552 193.343 233.552 192.842C233.552 192.411 233.635 192.057 233.801 191.778C233.966 191.5 234.19 191.28 234.472 191.117C234.754 190.955 235.068 190.832 235.416 190.749C235.764 190.666 236.119 190.603 236.48 190.56C236.938 190.507 237.309 190.464 237.594 190.431C237.879 190.395 238.086 190.337 238.215 190.257C238.345 190.178 238.409 190.048 238.409 189.869V189.835C238.409 189.4 238.287 189.064 238.041 188.825C237.8 188.587 237.438 188.467 236.958 188.467C236.457 188.467 236.063 188.578 235.774 188.8C235.489 189.019 235.292 189.263 235.183 189.531L233.786 189.213C233.952 188.749 234.193 188.375 234.512 188.089C234.833 187.801 235.203 187.592 235.62 187.463C236.038 187.33 236.477 187.264 236.938 187.264C237.243 187.264 237.566 187.301 237.907 187.374C238.252 187.443 238.573 187.572 238.872 187.761C239.173 187.95 239.42 188.22 239.612 188.572C239.805 188.92 239.901 189.372 239.901 189.929V195H238.449V193.956H238.389C238.293 194.148 238.149 194.337 237.957 194.523C237.765 194.708 237.518 194.862 237.216 194.985C236.915 195.108 236.553 195.169 236.132 195.169ZM236.456 193.976C236.867 193.976 237.218 193.895 237.51 193.732C237.804 193.57 238.028 193.358 238.181 193.096C238.336 192.831 238.414 192.547 238.414 192.246V191.261C238.361 191.314 238.259 191.364 238.106 191.411C237.957 191.454 237.786 191.492 237.594 191.525C237.402 191.555 237.215 191.583 237.032 191.609C236.85 191.633 236.697 191.652 236.575 191.669C236.286 191.705 236.023 191.767 235.784 191.853C235.549 191.939 235.36 192.063 235.218 192.226C235.078 192.385 235.009 192.597 235.009 192.862C235.009 193.23 235.145 193.509 235.416 193.697C235.688 193.883 236.035 193.976 236.456 193.976ZM243.108 192.41L243.098 190.595H243.357L246.399 187.364H248.179L244.709 191.043H244.475L243.108 192.41ZM241.741 195V184.818H243.227V195H241.741ZM246.563 195L243.829 191.371L244.853 190.332L248.388 195H246.563ZM252.296 195.154C251.58 195.154 250.955 194.99 250.422 194.662C249.888 194.334 249.474 193.875 249.179 193.285C248.884 192.695 248.736 192.005 248.736 191.217C248.736 190.424 248.884 189.732 249.179 189.138C249.474 188.545 249.888 188.085 250.422 187.756C250.955 187.428 251.58 187.264 252.296 187.264C253.012 187.264 253.637 187.428 254.17 187.756C254.704 188.085 255.118 188.545 255.413 189.138C255.708 189.732 255.856 190.424 255.856 191.217C255.856 192.005 255.708 192.695 255.413 193.285C255.118 193.875 254.704 194.334 254.17 194.662C253.637 194.99 253.012 195.154 252.296 195.154ZM252.301 193.906C252.765 193.906 253.149 193.784 253.454 193.538C253.759 193.293 253.985 192.967 254.13 192.559C254.28 192.151 254.354 191.702 254.354 191.212C254.354 190.724 254.28 190.277 254.13 189.869C253.985 189.458 253.759 189.129 253.454 188.88C253.149 188.631 252.765 188.507 252.301 188.507C251.834 188.507 251.446 188.631 251.138 188.88C250.833 189.129 250.606 189.458 250.456 189.869C250.311 190.277 250.238 190.724 250.238 191.212C250.238 191.702 250.311 192.151 250.456 192.559C250.606 192.967 250.833 193.293 251.138 193.538C251.446 193.784 251.834 193.906 252.301 193.906ZM266.612 187.493C266.559 187.022 266.341 186.658 265.956 186.399C265.572 186.137 265.088 186.006 264.505 186.006C264.087 186.006 263.726 186.073 263.421 186.205C263.116 186.335 262.879 186.513 262.71 186.742C262.544 186.968 262.461 187.224 262.461 187.513C262.461 187.755 262.518 187.964 262.63 188.139C262.746 188.315 262.897 188.462 263.083 188.582C263.272 188.698 263.474 188.795 263.689 188.875C263.905 188.951 264.112 189.014 264.311 189.064L265.305 189.322C265.63 189.402 265.963 189.51 266.304 189.646C266.646 189.781 266.962 189.96 267.254 190.183C267.546 190.405 267.781 190.68 267.96 191.008C268.142 191.336 268.233 191.729 268.233 192.186C268.233 192.763 268.084 193.275 267.786 193.722C267.491 194.17 267.062 194.523 266.498 194.781C265.938 195.04 265.26 195.169 264.465 195.169C263.702 195.169 263.043 195.048 262.486 194.806C261.929 194.564 261.493 194.221 261.179 193.777C260.864 193.33 260.69 192.799 260.657 192.186H262.198C262.228 192.554 262.347 192.861 262.556 193.106C262.768 193.348 263.038 193.528 263.366 193.648C263.697 193.764 264.06 193.822 264.455 193.822C264.889 193.822 265.275 193.754 265.613 193.618C265.955 193.479 266.223 193.286 266.419 193.041C266.614 192.793 266.712 192.503 266.712 192.171C266.712 191.87 266.626 191.623 266.453 191.43C266.284 191.238 266.054 191.079 265.762 190.953C265.474 190.827 265.148 190.716 264.783 190.62L263.58 190.292C262.764 190.07 262.118 189.743 261.641 189.312C261.167 188.882 260.93 188.312 260.93 187.602C260.93 187.016 261.089 186.504 261.407 186.066C261.725 185.629 262.156 185.289 262.7 185.047C263.243 184.802 263.857 184.679 264.539 184.679C265.229 184.679 265.837 184.8 266.364 185.042C266.894 185.284 267.312 185.617 267.617 186.041C267.922 186.462 268.081 186.946 268.094 187.493H266.612ZM271.296 190.466V195H269.81V184.818H271.276V188.607H271.371C271.55 188.196 271.823 187.869 272.191 187.627C272.559 187.385 273.04 187.264 273.633 187.264C274.157 187.264 274.614 187.372 275.005 187.587C275.399 187.803 275.704 188.124 275.92 188.552C276.139 188.976 276.248 189.506 276.248 190.143V195H274.761V190.322C274.761 189.762 274.617 189.327 274.329 189.019C274.041 188.708 273.639 188.552 273.126 188.552C272.774 188.552 272.46 188.626 272.181 188.776C271.906 188.925 271.689 189.143 271.53 189.432C271.374 189.717 271.296 190.062 271.296 190.466ZM284.351 187.364L281.582 195H279.991L277.217 187.364H278.812L280.746 193.24H280.826L282.755 187.364H284.351ZM285.608 195V187.364H287.094V195H285.608ZM286.359 186.185C286.1 186.185 285.878 186.099 285.692 185.927C285.51 185.751 285.419 185.542 285.419 185.3C285.419 185.055 285.51 184.846 285.692 184.674C285.878 184.498 286.1 184.411 286.359 184.411C286.617 184.411 286.837 184.498 287.02 184.674C287.205 184.846 287.298 185.055 287.298 185.3C287.298 185.542 287.205 185.751 287.02 185.927C286.837 186.099 286.617 186.185 286.359 186.185ZM290.441 184.818V195H288.954V184.818H290.441ZM292.3 195V187.364H293.787V195H292.3ZM293.051 186.185C292.793 186.185 292.571 186.099 292.385 185.927C292.203 185.751 292.112 185.542 292.112 185.3C292.112 185.055 292.203 184.846 292.385 184.674C292.571 184.498 292.793 184.411 293.051 184.411C293.31 184.411 293.53 184.498 293.712 184.674C293.898 184.846 293.991 185.055 293.991 185.3C293.991 185.542 293.898 185.751 293.712 185.927C293.53 186.099 293.31 186.185 293.051 186.185Z" fill="white"/>
<path d="M45.3977 129.42V127.682L53.0682 115.545H54.3295V118.239H53.4773L47.6818 127.409V127.545H58.0114V129.42H45.3977ZM53.6136 133V128.892V128.082V115.545H55.625V133H53.6136ZM66.7962 133.239C65.6257 133.239 64.5916 133.031 63.6939 132.616C62.8018 132.196 62.1058 131.619 61.6058 130.886C61.1058 130.148 60.8587 129.307 60.8643 128.364C60.8587 127.625 61.0036 126.943 61.299 126.318C61.5945 125.687 61.9979 125.162 62.5092 124.741C63.0263 124.315 63.603 124.045 64.2393 123.932V123.83C63.4041 123.614 62.7393 123.145 62.245 122.423C61.7507 121.696 61.5064 120.869 61.5121 119.943C61.5064 119.057 61.7308 118.264 62.1854 117.565C62.6399 116.866 63.2649 116.315 64.0604 115.912C64.8615 115.509 65.7734 115.307 66.7962 115.307C67.8075 115.307 68.7109 115.509 69.5064 115.912C70.3018 116.315 70.9268 116.866 71.3814 117.565C71.8416 118.264 72.0746 119.057 72.0803 119.943C72.0746 120.869 71.8217 121.696 71.3217 122.423C70.8274 123.145 70.1712 123.614 69.353 123.83V123.932C69.9837 124.045 70.5518 124.315 71.0575 124.741C71.5632 125.162 71.9666 125.687 72.2678 126.318C72.5689 126.943 72.7223 127.625 72.728 128.364C72.7223 129.307 72.4666 130.148 71.9609 130.886C71.4609 131.619 70.7649 132.196 69.8729 132.616C68.9865 133.031 67.9609 133.239 66.7962 133.239ZM66.7962 131.364C67.5859 131.364 68.2678 131.236 68.8416 130.98C69.4155 130.724 69.8587 130.364 70.1712 129.898C70.4837 129.432 70.6428 128.886 70.6484 128.261C70.6428 127.602 70.4723 127.02 70.1371 126.514C69.8018 126.009 69.3445 125.611 68.7649 125.321C68.1911 125.031 67.5348 124.886 66.7962 124.886C66.0518 124.886 65.3871 125.031 64.8018 125.321C64.2223 125.611 63.7649 126.009 63.4297 126.514C63.1001 127.02 62.9382 127.602 62.9439 128.261C62.9382 128.886 63.0888 129.432 63.3956 129.898C63.7081 130.364 64.1541 130.724 64.7337 130.98C65.3132 131.236 66.0007 131.364 66.7962 131.364ZM66.7962 123.08C67.4212 123.08 67.9751 122.955 68.4581 122.705C68.9467 122.455 69.3303 122.105 69.6087 121.656C69.8871 121.207 70.0291 120.682 70.0348 120.08C70.0291 119.489 69.8899 118.974 69.6172 118.537C69.3445 118.094 68.9666 117.753 68.4837 117.514C68.0007 117.27 67.4382 117.148 66.7962 117.148C66.1428 117.148 65.5717 117.27 65.0831 117.514C64.5945 117.753 64.2166 118.094 63.9496 118.537C63.6825 118.974 63.5518 119.489 63.5575 120.08C63.5518 120.682 63.6854 121.207 63.9581 121.656C64.2365 122.105 64.62 122.455 65.1087 122.705C65.5973 122.955 66.1598 123.08 66.7962 123.08ZM81.4489 133.239C80.4489 133.239 79.5483 133.04 78.7472 132.642C77.946 132.244 77.304 131.699 76.821 131.006C76.3381 130.312 76.0739 129.523 76.0284 128.636H78.0739C78.1534 129.426 78.5114 130.08 79.1477 130.597C79.7898 131.108 80.5568 131.364 81.4489 131.364C82.1648 131.364 82.8011 131.196 83.358 130.861C83.9205 130.526 84.3608 130.065 84.679 129.48C85.0028 128.889 85.1648 128.222 85.1648 127.477C85.1648 126.716 84.9972 126.037 84.6619 125.44C84.3324 124.838 83.8778 124.364 83.2983 124.017C82.7188 123.67 82.0568 123.494 81.3125 123.489C80.7784 123.483 80.2301 123.565 79.6676 123.736C79.1051 123.901 78.642 124.114 78.2784 124.375L76.3011 124.136L77.358 115.545H86.4261V117.42H79.1307L78.517 122.568H78.6193C78.9773 122.284 79.4261 122.048 79.9659 121.861C80.5057 121.673 81.0682 121.58 81.6534 121.58C82.7216 121.58 83.6733 121.835 84.5085 122.347C85.3494 122.852 86.0085 123.545 86.4858 124.426C86.9688 125.307 87.2102 126.312 87.2102 127.443C87.2102 128.557 86.9602 129.551 86.4602 130.426C85.9659 131.295 85.2841 131.983 84.4148 132.489C83.5455 132.989 82.5568 133.239 81.4489 133.239ZM96.0504 133.239C95.0504 133.239 94.1499 133.04 93.3487 132.642C92.5476 132.244 91.9055 131.699 91.4226 131.006C90.9396 130.312 90.6754 129.523 90.63 128.636H92.6754C92.755 129.426 93.1129 130.08 93.7493 130.597C94.3913 131.108 95.1584 131.364 96.0504 131.364C96.7663 131.364 97.4027 131.196 97.9595 130.861C98.522 130.526 98.9624 130.065 99.2805 129.48C99.6044 128.889 99.7663 128.222 99.7663 127.477C99.7663 126.716 99.5987 126.037 99.2635 125.44C98.9339 124.838 98.4794 124.364 97.8999 124.017C97.3203 123.67 96.6584 123.494 95.9141 123.489C95.38 123.483 94.8317 123.565 94.2692 123.736C93.7067 123.901 93.2436 124.114 92.88 124.375L90.9027 124.136L91.9595 115.545H101.028V117.42H93.7322L93.1186 122.568H93.2209C93.5788 122.284 94.0277 122.048 94.5675 121.861C95.1072 121.673 95.6697 121.58 96.255 121.58C97.3232 121.58 98.2749 121.835 99.1101 122.347C99.951 122.852 100.61 123.545 101.087 124.426C101.57 125.307 101.812 126.312 101.812 127.443C101.812 128.557 101.562 129.551 101.062 130.426C100.567 131.295 99.8857 131.983 99.0163 132.489C98.147 132.989 97.1584 133.239 96.0504 133.239ZM115.322 125.364L115.459 121.614L112.288 123.625L111.47 122.193L114.811 120.455L111.47 118.716L112.288 117.284L115.459 119.295L115.322 115.545H116.959L116.822 119.295L119.993 117.284L120.811 118.716L117.47 120.455L120.811 122.193L119.993 123.625L116.822 121.614L116.959 125.364H115.322ZM127.322 125.364L127.459 121.614L124.288 123.625L123.47 122.193L126.811 120.455L123.47 118.716L124.288 117.284L127.459 119.295L127.322 115.545H128.959L128.822 119.295L131.993 117.284L132.811 118.716L129.47 120.455L132.811 122.193L131.993 123.625L128.822 121.614L128.959 125.364H127.322ZM139.322 125.364L139.459 121.614L136.288 123.625L135.47 122.193L138.811 120.455L135.47 118.716L136.288 117.284L139.459 119.295L139.322 115.545H140.959L140.822 119.295L143.993 117.284L144.811 118.716L141.47 120.455L144.811 122.193L143.993 123.625L140.822 121.614L140.959 125.364H139.322ZM151.322 125.364L151.459 121.614L148.288 123.625L147.47 122.193L150.811 120.455L147.47 118.716L148.288 117.284L151.459 119.295L151.322 115.545H152.959L152.822 119.295L155.993 117.284L156.811 118.716L153.47 120.455L156.811 122.193L155.993 123.625L152.822 121.614L152.959 125.364H151.322ZM170.072 125.364L170.209 121.614L167.038 123.625L166.22 122.193L169.561 120.455L166.22 118.716L167.038 117.284L170.209 119.295L170.072 115.545H171.709L171.572 119.295L174.743 117.284L175.561 118.716L172.22 120.455L175.561 122.193L174.743 123.625L171.572 121.614L171.709 125.364H170.072ZM182.072 125.364L182.209 121.614L179.038 123.625L178.22 122.193L181.561 120.455L178.22 118.716L179.038 117.284L182.209 119.295L182.072 115.545H183.709L183.572 119.295L186.743 117.284L187.561 118.716L184.22 120.455L187.561 122.193L186.743 123.625L183.572 121.614L183.709 125.364H182.072ZM194.072 125.364L194.209 121.614L191.038 123.625L190.22 122.193L193.561 120.455L190.22 118.716L191.038 117.284L194.209 119.295L194.072 115.545H195.709L195.572 119.295L198.743 117.284L199.561 118.716L196.22 120.455L199.561 122.193L198.743 123.625L195.572 121.614L195.709 125.364H194.072ZM206.072 125.364L206.209 121.614L203.038 123.625L202.22 122.193L205.561 120.455L202.22 118.716L203.038 117.284L206.209 119.295L206.072 115.545H207.709L207.572 119.295L210.743 117.284L211.561 118.716L208.22 120.455L211.561 122.193L210.743 123.625L207.572 121.614L207.709 125.364H206.072ZM224.822 125.364L224.959 121.614L221.788 123.625L220.97 122.193L224.311 120.455L220.97 118.716L221.788 117.284L224.959 119.295L224.822 115.545H226.459L226.322 119.295L229.493 117.284L230.311 118.716L226.97 120.455L230.311 122.193L229.493 123.625L226.322 121.614L226.459 125.364H224.822ZM236.822 125.364L236.959 121.614L233.788 123.625L232.97 122.193L236.311 120.455L232.97 118.716L233.788 117.284L236.959 119.295L236.822 115.545H238.459L238.322 119.295L241.493 117.284L242.311 118.716L238.97 120.455L242.311 122.193L241.493 123.625L238.322 121.614L238.459 125.364H236.822ZM248.822 125.364L248.959 121.614L245.788 123.625L244.97 122.193L248.311 120.455L244.97 118.716L245.788 117.284L248.959 119.295L248.822 115.545H250.459L250.322 119.295L253.493 117.284L254.311 118.716L250.97 120.455L254.311 122.193L253.493 123.625L250.322 121.614L250.459 125.364H248.822ZM260.822 125.364L260.959 121.614L257.788 123.625L256.97 122.193L260.311 120.455L256.97 118.716L257.788 117.284L260.959 119.295L260.822 115.545H262.459L262.322 119.295L265.493 117.284L266.311 118.716L262.97 120.455L266.311 122.193L265.493 123.625L262.322 121.614L262.459 125.364H260.822Z" fill="white"/>
<g opacity="0.5">
<path d="M307.75 127.75H312.25V115.75H300.25V120.25" stroke="white" stroke-width="1.5" stroke-linecap="round" stroke-linejoin="round"/>
<path d="M307.75 120.25H295.75V132.25H307.75V120.25Z" stroke="white" stroke-width="1.5" stroke-linecap="round" stroke-linejoin="round"/>
</g>
<path fill-rule="evenodd" clip-rule="evenodd" d="M73.5606 79.5333H80.4148L84.6993 52.4833H77.8444L73.5606 79.5333ZM61.2599 71.0885L67.7944 52.4833H75.1711L64.2662 79.534H57.1246L51.1697 56.0332C47.3035 53.6476 44 52.9414 44 52.9414L44.0007 52.9389C44.069 52.9536 49.2253 54.0719 54.1725 58.1868C58.8595 62.0838 60.4376 66.9258 60.4861 67.0773L60.4873 67.0835L60.4866 67.0821L61.2599 71.0885ZM128 79.5333H121.706L120.904 75.5153H112.19L110.761 79.5333H103.616L113.839 54.4985C113.839 54.4985 114.458 52.4826 117.003 52.4826H122.513L128 79.5333ZM117.765 59.8421L114.164 69.9648H119.792L117.765 59.8421ZM105.13 53.1794L104.152 58.9882C101.219 57.3276 94.5437 56.9347 94.543 59.9933C94.543 61.2083 96.0533 62.044 97.8737 63.0511C100.635 64.5786 104.108 66.5006 104.108 70.739C104.108 77.5116 97.0521 80 92.3746 80C87.6986 80 84.638 78.4725 84.638 78.4725L85.657 72.3989C88.4634 74.7136 96.9669 75.3713 96.9669 71.7006C96.9669 70.1582 95.2929 69.2486 93.3518 68.1938C90.6735 66.7384 87.4866 65.0066 87.4866 60.9549C87.4866 53.5275 95.5641 52 98.9655 52C102.112 52 105.13 53.1794 105.13 53.1794Z" fill="white"/>
<path opacity="0.5" d="M60.5185 66.7055L58.2078 54.8437C58.2078 54.8437 57.9284 52.4688 54.9502 52.4688H44.127L44 52.9154C44 52.9154 49.2021 53.9935 54.1918 58.0328C58.9627 61.8936 60.5185 66.7055 60.5185 66.7055Z" fill="white"/>
<g opacity="0.5">
<path d="M368 67.525C368.842 67.525 369.525 66.8422 369.525 66C369.525 65.1578 368.842 64.475 368 64.475C367.158 64.475 366.475 65.1578 366.475 66C366.475 66.8422 367.158 67.525 368 67.525Z" fill="white" stroke="white" stroke-width="0.8"/>
<path d="M375 67.525C375.842 67.525 376.525 66.8422 376.525 66C376.525 65.1578 375.842 64.475 375 64.475C374.158 64.475 373.475 65.1578 373.475 66C373.475 66.8422 374.158 67.525 375 67.525Z" fill="white" stroke="white" stroke-width="0.8"/>
<path d="M361 67.525C361.842 67.525 362.525 66.8422 362.525 66C362.525 65.1578 361.842 64.475 361 64.475C360.158 64.475 359.475 65.1578 359.475 66C359.475 66.8422 360.158 67.525 361 67.525Z" fill="white" stroke="white" stroke-width="0.8"/>
</g>
</g>
<defs>
<filter id="filter0_d_2923_82259" x="-12" y="0" width="448" height="264" filterUnits="userSpaceOnUse" color-interpolation-filters="sRGB">
<feFlood flood-opacity="0" result="BackgroundImageFix"/>
<feColorMatrix in="SourceAlpha" type="matrix" values="0 0 0 0 0 0 0 0 0 0 0 0 0 0 0 0 0 0 127 0" result="hardAlpha"/>
<feOffset dy="8"/>
<feGaussianBlur stdDeviation="16"/>
<feComposite in2="hardAlpha" operator="out"/>
<feColorMatrix type="matrix" values="0 0 0 0 0.270588 0 0 0 0 0.247059 0 0 0 0 0.792157 0 0 0 0.24 0"/>
<feBlend mode="normal" in2="BackgroundImageFix" result="effect1_dropShadow_2923_82259"/>
<feBlend mode="normal" in="SourceGraphic" in2="effect1_dropShadow_2923_82259" result="shape"/>
</filter>
<radialGradient id="paint0_radial_2923_82259" cx="0" cy="0" r="1" gradientUnits="userSpaceOnUse" gradientTransform="translate(26 24) rotate(28.4254) scale(420.155 588.557)">
<stop stop-color="#453FCA"/>
<stop offset="1" stop-color="#342F98"/>
</radialGradient>
<clipPath id="clip0_2923_82259">
<rect width="384" height="200" fill="white" transform="translate(20 24)"/>
</clipPath>
</defs>
</svg>
